<?xml version="1.0" encoding="UTF-8" standalone="no"?>
<!-- Created with Inkscape (http://www.inkscape.org/) -->

<svg
   version="1.1"
   id="svg2"
   width="4535.4268"
   height="1889.76"
   viewBox="0 0 4535.4268 1889.76"
   sodipodi:docname="bmw.ai"
   xmlns:inkscape="http://www.inkscape.org/namespaces/inkscape"
   xmlns:sodipodi="http://sodipodi.sourceforge.net/DTD/sodipodi-0.dtd"
   xmlns="http://www.w3.org/2000/svg"
   xmlns:svg="http://www.w3.org/2000/svg">
  <defs
     id="defs6">
    <clipPath
       clipPathUnits="userSpaceOnUse"
       id="clipPath16">
      <path
         d="M 0,1417.32 H 3401.57 V 0 H 0 Z"
         id="path14" />
    </clipPath>
  </defs>
  <sodipodi:namedview
     id="namedview4"
     pagecolor="#ffffff"
     bordercolor="#000000"
     borderopacity="0.25"
     inkscape:showpageshadow="2"
     inkscape:pageopacity="0.0"
     inkscape:pagecheckerboard="0"
     inkscape:deskcolor="#d1d1d1" />
  <g
     id="g8"
     inkscape:groupmode="layer"
     inkscape:label="bmw"
     transform="matrix(1.3333333,0,0,-1.3333333,0,1889.76)">
    <g
       id="g10">
      <g
         id="g12"
         clip-path="url(#clipPath16)">
        <g
           id="g18"
           transform="translate(1821.7197,831.5967)">
          <path
             d="m 0,0 c 2.045,1.675 6.12,0.796 5.76,-1.68 -0.41,-2.825 -7.995,-1.923 -8.64,-6.96 -0.44,-3.443 1.603,-4.158 -0.48,-7.44 -3.643,-0.748 -5.207,2.62 -6.24,5.28 -3.346,0.776 -3.817,2.918 -5.76,5.759 -1.471,2.152 -5.187,3.389 -5.279,5.521 -0.199,4.571 7.181,2.643 8.88,6.48 0.703,1.589 -0.52,3.114 1.2,4.8 C -6.951,7.929 -1.086,6.354 0,0"
             style="fill:#231f20;fill-opacity:1;fill-rule:evenodd;stroke:none"
             id="path20" />
        </g>
        <g
           id="g22"
           transform="translate(1695.001,777.5967)">
          <path
             d="m 0,0 c -4.966,-0.396 -5.499,4.686 -9.121,4.56 -1.368,-0.048 -2.562,-2.146 -3.839,-2.88 -2.934,-1.686 -6.407,-2.777 -10.321,-4.32 -2.9,-1.143 -7.88,-4.236 -10.32,-4.08 -2.204,0.14 -4.891,4.117 -6,5.52 -3.679,4.654 -6.15,8.231 -9.359,13.679 -1.227,2.084 -3.963,5.465 -3.84,7.681 0.139,2.537 7.374,8.815 9.118,10.56 3.661,3.659 7.764,6.036 10.802,8.64 1.06,0.909 2.053,3.412 3.599,3.36 4.449,-0.152 6.641,-5.886 8.88,-9.12 5.121,-7.396 9.338,-14.641 14.16,-21.84 C -3.861,8.206 -0.56,4.822 0,0"
             style="fill:#231f20;fill-opacity:1;fill-rule:evenodd;stroke:none"
             id="path24" />
        </g>
        <g
           id="g26"
           transform="translate(1724.0049,821.752)">
          <path
             d="m 0,0 h 0.654 c 7.96,-4.533 13.676,-11.219 16.068,-21.099 -2.88,-0.374 -7.776,3.741 -11.148,0.945 0.035,-3.034 2.987,-5.837 5.573,-10.078 1.476,-2.418 4.374,-9.247 6.56,-9.448 3.334,-0.306 3.681,4.634 5.246,7.243 3.92,-1.57 6.384,-5.518 8.852,-9.132 4.632,-6.782 8.387,-14.285 13.771,-21.414 2.062,-2.729 7.642,-6.852 8.197,-9.448 0.719,-3.339 -1.459,-7.009 -1.965,-10.392 -0.542,-3.604 -0.045,-7.259 -2.297,-9.763 -4.933,-0.548 -9.296,1.376 -13.444,3.464 -2.889,1.456 -9.098,3.969 -10.491,6.929 -0.5,1.06 -0.271,2.686 -0.657,3.779 -1.274,3.622 -4.72,7.549 -6.885,11.337 -1.128,1.974 -2.122,3.82 -3.278,5.668 -1.948,3.11 -4.015,5.417 -5.903,8.818 -3.715,-0.276 -5.511,-2.454 -8.199,-3.464 -1.895,-0.714 -5.188,-2.278 -6.885,-2.204 -2.285,0.099 -7.39,4.63 -8.524,5.983 -4.864,5.796 -4.584,16.348 -0.656,22.044 0.914,1.327 5.227,3.72 5.574,5.354 1.177,5.533 -7.108,11.63 -2.952,17.005 1.543,0.65 3.809,-1.539 5.903,-0.315 1.42,2.538 -2.571,3.632 -1.311,5.984 3.242,0.971 3.691,-3.35 7.54,-2.835 C 1.445,-4.226 0.243,-1.89 0,0 m 0.654,-33.695 c -2.852,0.371 -3.308,-4.513 -5.246,-5.04 -1.896,-0.515 -3.567,1.285 -5.245,0.63 -3.229,-2.645 -1.095,-9.91 2.623,-9.132 2.338,0.487 1.403,5.891 4.591,6.612 2.137,0.485 2.938,-1.747 4.919,-0.629 2.732,2.766 0.957,7.221 -1.642,7.559"
             style="fill:#231f20;fill-opacity:1;fill-rule:evenodd;stroke:none"
             id="path28" />
        </g>
        <g
           id="g30"
           transform="translate(1756.6797,803.9966)">
          <path
             d="m 0,0 c 2.038,0.335 4.729,-1.58 6.721,-1.92 1.575,-0.27 3.389,0.125 5.279,-0.24 2.583,-0.498 5.87,-2.202 8.16,-3.12 2.65,-1.061 6.881,-2.257 6.96,-4.32 0.106,-2.745 -5.361,-3.694 -7.68,-4.56 -3.416,-1.277 -5.304,-2.69 -7.919,-4.08 -1.493,1.556 -1.266,3.796 -1.92,5.52 C 7.595,-7.434 2.553,-4.694 0,0"
             style="fill:#231f20;fill-opacity:1;fill-rule:evenodd;stroke:none"
             id="path32" />
        </g>
        <g
           id="g34"
           transform="translate(1676.2798,768.7163)">
          <path
             d="M 0,0 C 1.991,2.406 9.229,5.653 13.92,6 20.6,6.494 28.479,-2.783 21.36,-6.24 16.061,-8.813 11.033,-5.623 6.96,-3.84 4.13,-2.601 0.972,-1.934 0,0"
             style="fill:#231f20;fill-opacity:1;fill-rule:evenodd;stroke:none"
             id="path36" />
        </g>
        <g
           id="g38"
           transform="translate(1692.5996,753.8364)">
          <path
             d="m 0,0 c -0.172,-3.855 -2.201,-5.561 -4.559,-7.92 -1.462,-1.462 -4.727,-5.616 -7.201,-5.28 -2.052,0.279 -2.86,4.203 -3.6,5.52 -2.268,4.039 -4.047,7.025 -7.199,11.04 -0.672,0.856 -6.464,7.448 -1.441,6.96 3.2,-0.311 6.751,-3.247 9.841,-4.8 C -9.488,3.172 -6.048,0.775 0,0"
             style="fill:#231f20;fill-opacity:1;fill-rule:evenodd;stroke:none"
             id="path40" />
        </g>
        <g
           id="g42"
           transform="translate(1514.5205,732.7163)">
          <path
             d="m 0,0 c -5.62,-0.419 -11.822,0.589 -17.281,0.48 1.972,2.829 1.794,7.806 2.881,11.52 1.073,0.687 2.544,0.976 4.32,0.96 C -7.102,8.258 -2.232,5.448 0,0"
             style="fill:#ffffff;fill-opacity:1;fill-rule:evenodd;stroke:none"
             id="path44" />
        </g>
        <g
           id="g46"
           transform="translate(1722.5996,690.7168)">
          <path
             d="m 0,0 c -9.461,1.015 -27.377,8.21 -19.313,18.912 0.65,0.112 0.693,-0.381 1.206,-0.403 C -15.837,8.572 -6.051,6.152 0,0"
             style="fill:#231f20;fill-opacity:1;fill-rule:evenodd;stroke:none"
             id="path48" />
        </g>
        <g
           id="g50"
           transform="translate(1452.6006,635.9961)">
          <path
             d="m 0,0 c 1.977,-6.704 2.166,-13.121 3.6,-19.199 2.238,-9.493 6.309,-17.436 10.32,-25.2 1.328,-2.574 4.01,-4.288 4.319,-7.441 -1.715,0.364 -3.16,1 -5.52,0.72 -7.144,5.937 -11.828,17.051 -14.879,28.56 -1.304,4.915 -2.527,10.537 -2.88,15.121 -0.221,2.871 -0.294,6.636 1.199,7.679 C -2.461,-0.217 -1.121,0.349 0,0"
             style="fill:#231f20;fill-opacity:1;fill-rule:evenodd;stroke:none"
             id="path52" />
        </g>
        <g
           id="g54"
           transform="translate(1486.6797,594.7168)">
          <path
             d="M 0,0 C 1.129,-0.874 2.594,-2.214 3.12,-4.32 3.489,-5.789 2.838,-7.558 3.361,-8.88 3.825,-10.056 5.729,-10.619 6,-11.761 6.675,-14.593 3.243,-16.352 3.841,-19.2 c -3.175,-0.475 -4.298,2.683 -6.241,4.08 -0.728,0.523 -1.848,0.481 -2.64,0.96 -2.535,1.532 -4.295,4.186 -5.759,6.72 1.862,1.257 3.543,2.696 4.08,5.28 C -4.956,-0.964 -1.526,-1.434 0,0"
             style="fill:#231f20;fill-opacity:1;fill-rule:evenodd;stroke:none"
             id="path56" />
        </g>
        <g
           id="g58"
           transform="translate(1508.7598,566.1563)">
          <path
             d="m 0,0 c -0.554,-2.145 -3.892,-2.219 -6.239,-2.4 -10.307,-0.792 -16.434,3.071 -22.32,6.72 -2.101,1.302 -7.396,4.348 -7.441,6.72 -0.105,5.664 5.724,-1.404 6.721,-2.16 1.63,-1.234 5.202,-3.451 8.159,-4.8 5.206,-2.374 11.721,-5.076 16.801,-4.559 C -2.624,-0.308 -2.151,1.101 0,0"
             style="fill:#231f20;fill-opacity:1;fill-rule:evenodd;stroke:none"
             id="path60" />
        </g>
        <g
           id="g62"
           transform="translate(1514.0405,570.2363)">
          <path
             d="m 0,0 c -2.824,0.528 -4.008,-1.447 -6.241,-1.44 -0.748,0.003 -1.963,0.782 -2.639,0.961 -3.441,0.908 -8.301,0.522 -8.881,2.879 -0.266,1.084 0.771,3.074 1.681,3.36 2.848,0.896 5.199,-2.311 8.4,-3.12 C -5.086,1.984 -3.366,2.395 -2.401,0.72 -1.507,0.573 0.133,1.174 0,0"
             style="fill:#231f20;fill-opacity:1;fill-rule:evenodd;stroke:none"
             id="path64" />
        </g>
        <g
           id="g66"
           transform="translate(1825.3213,541.1963)">
          <path
             d="m 0,0 c 1.121,-0.242 0.796,0.963 1.919,0.721 2.915,-3.777 3.523,-9.06 6.721,-13.921 1.251,-1.903 3.515,-6.845 5.04,-7.2 2.839,-0.661 7.295,2.106 9.358,-0.96 -0.399,-1.804 -2.383,-1.097 -2.64,-2.64 -0.253,-1.527 3.398,-4.733 4.8,-5.28 3.826,-1.488 7.941,-2.412 8.881,-5.52 -0.143,-3.263 2.312,-3.928 3.359,-6 8.621,-0.186 5.337,-5.326 12.481,-6.48 14.364,-9.027 24.825,-7.817 32.641,-11.04 -3.554,-2.762 -7.665,-2.408 -12.96,-2.64 -9.134,-0.401 -16.359,1.912 -24.242,5.04 -12.454,4.943 -24.912,15.157 -33.12,25.68 -2.22,2.848 -5.059,5.699 -7.2,8.88 -2.232,3.322 -4.944,7.183 -5.76,10.32 -0.257,0.994 0.015,2.385 -0.24,3.12 -0.362,1.052 -1.557,1.628 -2.159,2.64 C -4.936,-2.233 -5.334,1.359 -5.762,4.8 -2.451,8.162 -1.567,1.505 0,0"
             style="fill:#231f20;fill-opacity:1;fill-rule:evenodd;stroke:none"
             id="path68" />
        </g>
        <g
           id="g70"
           transform="translate(1910.5195,821.0366)">
          <path
             d="m 0,0 c -4.613,0.134 -6.093,-2.867 -7.198,-6.24 1.81,-3.024 5.149,-4.543 7.679,-6.72 12.625,-10.866 24.02,-22.941 33.599,-37.92 1.734,-2.709 3.691,-5.639 5.04,-9.36 1.256,-3.458 3.149,-7.503 3.361,-10.8 0.211,-3.275 -1.241,-7.419 -2.879,-8.4 -0.722,-0.431 -2.606,-0.415 -3.602,-0.721 -2.538,-0.777 -3.859,-2.61 -5.278,-2.88 -3.673,-0.695 -6.585,0.756 -10.08,0.241 -1.829,-0.269 -2.901,-1.304 -4.562,-1.44 -5.101,-0.42 -12.118,0.463 -17.04,1.199 -4.814,0.723 -9.159,3.204 -13.439,4.801 -4.489,1.675 -8.849,3.375 -13.2,5.04 -4.396,1.682 -8.917,3.869 -13.679,4.08 -0.889,-2.463 -0.457,-4.617 -0.961,-7.2 -0.419,-2.14 -1.859,-4.237 -1.921,-6.24 -0.051,-1.693 1.56,-5.219 2.4,-7.44 0.996,-2.627 1.857,-5.124 2.641,-7.2 1.739,-4.601 3.345,-10.3 5.52,-13.92 0.904,-1.506 2.621,-2.374 3.599,-3.84 1.356,-2.032 1.412,-4.285 3.12,-5.52 19.276,-0.708 38.442,-5.379 53.04,-12.48 1.632,-0.793 5.176,-2.146 4.8,-4.32 -0.584,-3.379 -9.133,-2.222 -11.52,-4.32 7.706,-5.196 16.058,-9.207 22.8,-15.12 10.028,-8.793 19.758,-20.583 27.361,-32.64 5.526,-8.765 10.332,-19.863 13.679,-31.2 4.837,-16.381 7.451,-41.62 4.321,-60.481 -0.841,-5.067 -1.782,-10.11 -2.879,-14.879 -1.069,-4.641 -3.075,-8.773 -4.562,-13.201 -1.37,-4.084 -3.124,-8.445 -5.518,-12.239 -2.429,-3.844 -4.088,-8.114 -6.482,-11.28 -3.86,-5.109 -8.441,-11.409 -13.438,-15.36 -0.84,-0.664 -2.05,-0.97 -2.882,-1.68 -2.105,-1.798 -3.605,-4.249 -6,-6 -8.625,-6.31 -20.833,-11.894 -32.399,-15.6 -1.92,-0.615 -4.092,-1.205 -6.241,-1.68 -2.176,-0.482 -4.337,-1.418 -6.24,-1.68 -5.988,-0.824 -13.102,0.933 -18.96,1.92 -12.435,2.093 -23.317,4.345 -34.56,7.2 -5.462,1.388 -11.279,1.986 -15.12,5.52 2.656,1.346 6.41,1.591 9.84,2.16 -0.736,2.752 -3.586,4.211 -5.519,5.759 -27.597,22.116 -48.152,53.736 -52.801,99.121 -0.356,3.485 -0.68,7.252 -0.72,11.04 -0.033,3.211 1.12,7.49 -1.439,10.08 -1.611,-0.831 -1.112,-3.235 -2.641,-4.321 -1.517,-1.076 -5.143,-1.5 -7.92,-2.159 -6.963,-1.653 -17.849,-3.518 -23.519,-6.001 -1.611,-0.704 -2.359,-2.094 -3.601,-3.119 -2.248,1.066 -4.972,0.779 -5.76,-1.44 1.886,-2.547 4.3,-0.021 6.241,0.48 1.391,0.359 3.29,-0.081 5.28,0.239 2.934,0.473 3.902,2.207 7.92,1.92 3.024,-0.216 9.73,-2.136 9.84,-3.84 l -8.16,-3.599 c -0.447,0 -18.798,-6.893 -22.56,-7.92 -4.356,-1.19 -8.044,-3.719 -12,-4.8 -4.368,-1.194 -10.017,-0.194 -15.12,0.48 -6.194,0.818 -12.321,2.962 -18.481,3.36 -2.017,0.13 -4.254,-0.565 -6.239,-0.24 -2.318,0.38 -3.229,1.857 -5.28,2.639 -1.445,0.552 -3.787,0.826 -5.76,1.201 -1.925,0.366 -4.331,1.223 -5.761,1.2 -2.249,-0.036 -3.805,-1.249 -6.239,-0.72 -4.857,1.055 -4.656,5.818 -2.641,10.319 3.257,1.056 6.524,-0.635 9.84,-1.439 10.613,-2.574 26.71,-6.693 35.281,0 2.04,1.593 4.472,6.842 7.2,7.2 6.099,0.8 11.877,-8.022 19.439,-5.761 -0.759,8.121 -9.128,8.634 -14.159,12.481 0.3,2.655 0.924,4.518 2.399,6.96 0.896,1.482 3.685,3.385 3.84,5.28 0.109,1.315 -1.171,2.838 -1.2,4.319 -0.031,1.693 1.021,3.439 1.2,5.281 0.373,3.812 -1.661,9.864 -1.92,14.4 -0.175,3.074 -3.585,7.324 -5.28,8.64 -1.217,-1.389 0.787,-4.041 -0.239,-6 -7.238,1.924 -7.549,10.493 -11.761,15.36 -2.885,3.333 -6.683,5.276 -11.039,7.199 -1.341,-5.659 3.434,-8.233 6.72,-11.519 6.126,-6.126 10.33,-14.889 11.412,-26.401 1.019,-10.839 -2.459,-15.17 -6.853,-22.08 -1.722,-2.708 -5.537,-9.94 -8.159,-10.319 -2.047,-0.296 -4.039,0.275 -5.761,0.239 -1.647,-0.033 -3.36,-0.504 -4.799,-0.479 -5.252,0.092 -10.605,1.609 -15.121,3.12 -4.631,1.549 -8.816,4.22 -13.679,4.559 -1.435,0.101 -2.864,-0.499 -4.08,-0.239 -1.447,0.308 -2.147,1.91 -3.6,2.64 -3.514,1.763 -7.734,3.395 -11.28,1.2 -0.59,-1.189 0.067,-2.455 0,-3.84 -1.319,-0.819 -2.618,-2.551 -4.08,-2.64 -1.432,-0.088 -2.783,1.53 -4.08,1.919 -3.345,1.005 -8.026,1.905 -11.52,3.361 -2.585,1.077 -5.765,3.857 -7.201,0.24 -0.802,-2.022 0.513,-5.557 -1.439,-6.48 -2.09,-0.988 -4.392,2.627 -6.96,2.16 -2.256,-0.411 -2.55,-5.052 -4.8,-6.241 -4.41,-2.329 -10.617,2.357 -16.08,3.841 -2.989,0.812 -8.383,2.052 -10.801,1.44 -1.825,-0.463 -3.347,-4.547 -4.319,-6.481 -7.458,-14.834 -21.537,-30.062 -29.52,-35.039 -7.983,-4.977 -0.944,-1.375 -6.24,-4.32 -5.297,-2.945 -11.421,-3.538 -16.08,-4.8 -4.659,-1.263 2.107,-0.186 -6.48,-0.721 -8.587,-0.533 -31.69,2.235 -43.68,6 -3.891,1.222 -8.382,2.763 -10.8,5.761 1.217,1.889 8.977,-0.102 9.84,2.159 1.053,2.761 -2.926,2.962 -4.321,3.841 -1.574,0.992 -3.167,3.205 -5.039,5.04 -1.824,1.786 -3.814,3.442 -4.801,5.04 -0.47,0.764 -0.735,2.169 -1.199,2.88 -0.87,1.334 -2.739,1.857 -3.841,3.119 -1.686,1.934 -3.357,5.036 -5.04,7.681 -1.648,2.592 -3.555,5.254 -4.799,7.92 -2.692,5.769 -6.293,11.395 -7.92,17.519 -0.291,1.094 -0.176,2.312 -0.48,3.361 -0.392,1.347 -1.444,2.535 -1.92,3.84 -2.24,6.136 -3.734,14.078 -4.56,21.36 -1.192,10.493 -1.141,21.972 -1.201,31.92 -2.877,0.774 -5.046,-1.176 -8.399,-0.72 -4.266,2.586 -0.779,8.796 -1.44,12.96 -0.581,3.658 -4.723,5.696 -2.88,11.04 2.1,6.092 9.669,6.292 10.559,12.239 0.235,1.564 -0.575,3.188 -0.479,4.801 0.21,3.538 2.795,6.608 4.8,9.12 2.294,2.874 5.185,4.008 7.92,6 4.35,3.17 5.887,8.235 10.799,11.52 2.62,1.752 7.971,3.327 12.241,3.36 3.356,0.026 6.899,-1.677 10.08,-1.44 2.96,0.22 6.038,2.572 9.36,3.6 3.631,1.124 7.025,1.567 10.08,2.64 -0.362,2.162 -2.89,3.036 -3.36,5.519 -0.493,2.6 0.39,5.115 0.24,7.441 -0.161,2.478 -0.877,5.542 -1.44,7.68 -1.353,5.132 -7.431,11.726 -10.56,15.6 -4.083,5.053 -7.346,10.026 -11.76,14.16 -1.243,-0.965 -1.057,-3.241 -1.68,-4.56 -0.994,-2.103 -3.169,-3.597 -4.56,-5.76 -1.271,-1.976 -2.214,-4.372 -3.121,-6.96 -1.259,-3.597 -2.929,-12.425 -5.52,-14.64 -2.524,-2.158 -11.785,-1.704 -16.559,-2.16 -6.204,-0.593 -12.344,-1.725 -17.28,-1.44 -3.691,0.213 -6.446,-0.102 -9.6,0 -1.271,3.257 0.747,6.414 1.68,9.36 3.735,11.81 7.78,22.996 11.04,35.76 -2.269,1.598 -5.45,0.956 -8.161,1.44 -4.082,0.728 -9.868,2.557 -9.84,7.2 0.022,3.601 3.973,5.516 6.481,6.72 2.05,0.985 8.767,1.759 9.6,3.6 0.499,1.103 -0.779,2.443 -0.48,5.04 0.24,2.098 6.48,9.463 8.159,10.8 2.857,2.274 5.519,1.742 9.601,2.16 1.61,0.165 3.941,0.909 5.76,1.44 -0.084,-0.025 4.408,1.071 4.559,2.64 0.184,1.9 -5.022,4.84 -6.719,6 -4.951,3.385 -9.76,6.535 -14.88,10.08 -2.666,1.846 -6.127,3.829 -7.441,5.76 -2.691,3.958 -3.802,11.074 2.16,12.48 1.098,0.258 2.509,-0.202 4.081,0 1.377,0.177 2.206,1.159 3.839,1.44 1.237,0.213 2.473,-0.261 3.841,-0.24 2.066,0.031 4.344,1.007 6.719,0.959 2.66,-0.052 5.42,-1.107 7.921,-0.959 1.749,0.103 3.471,1.071 5.519,1.2 3.73,0.236 9.67,-1.077 15.12,-1.68 5.441,-0.602 11.442,-1.325 15.121,-2.64 1.711,-0.612 2.878,-1.943 4.319,-2.4 8.983,-2.847 18.412,-2.233 26.641,-5.52 4.319,-1.725 8.893,-3.909 12.96,-6.001 4.156,-2.136 8.061,-5.05 12.24,-6.719 3.352,-1.339 8.928,-1.912 12.96,-2.64 12.023,-2.173 26.059,-2.976 32.88,-11.04 3.219,-3.808 6.29,-9.41 6.719,-14.64 0.181,-2.198 -0.603,-4.267 -0.239,-6 0.458,-2.185 4.055,-3.814 6.239,-5.52 2.544,-1.986 4.525,-3.497 6.721,-5.04 3.986,-2.802 9.927,-8.629 15.6,-7.68 3.352,0.561 5.924,6.012 9.36,8.16 1.872,1.171 5.251,1.65 6.72,2.88 2.192,1.837 2.869,6.69 4.559,9.36 3.971,6.269 10.081,12.117 15.361,18 2.718,3.03 5.048,6.141 7.679,8.88 2.783,2.896 6.725,4.212 8.881,7.68 -4.945,0.82 -9.858,-0.031 -14.16,0.96 -8.159,1.878 -14.994,5.593 -21.84,9.36 -2.916,1.604 -8.434,4.331 -8.881,7.44 -0.211,1.472 0.15,4.929 -0.239,7.68 -0.349,2.46 -1.31,4.495 0.48,6 1.127,0.948 2.67,0.225 4.799,0.72 1.772,0.412 3.691,1.774 5.761,2.4 9.877,2.988 21.531,5.994 33.119,7.68 4.878,0.71 10.019,0.512 14.64,1.44 3.121,0.626 12.008,0.196 12.721,0.48 2.228,0.888 2.7,8.354 1.679,11.04 -1.201,3.161 -6.225,5.61 -9.36,7.68 -7.332,4.842 -12.574,9.559 -20.64,13.44 -3.038,1.461 -9.021,5.02 -12,4.8 -2.133,-0.158 -5.029,-3.105 -6.719,-4.08 -2.494,-1.437 -5.087,-2.782 -7.201,-3.36 -19.61,-5.368 -31.29,18.677 -20.88,33.84 3.919,5.708 13.581,10.758 22.8,7.44 6.737,-2.425 13.364,-9.819 15.361,-17.52 0.492,-1.898 0.378,-4.292 1.2,-6 0.802,-1.666 3.127,-2.992 4.8,-4.56 4.833,-4.533 10.007,-8.671 15.36,-12.24 3.306,-2.205 7.105,-4.817 11.04,-7.44 4.288,-2.86 10.57,-5.474 12,-10.8 0.473,-1.767 0.359,-3.992 0.72,-6 0.319,-1.779 1.095,-3.495 1.44,-5.28 1.104,-5.715 -1.7,-15.874 6.239,-13.44 0.541,2.022 -0.671,3.347 -0.96,5.04 -0.561,3.3 -1.606,11.005 0.72,13.44 1.569,1.641 6.971,1.2 10.561,1.2 6.578,0 12.221,0.873 12,-6.24 -0.08,-2.556 -1.678,-5.325 -0.72,-7.2 0.473,-0.927 1.603,-0.813 3.119,-1.68 1.333,-0.761 1.695,-1.73 2.881,-1.921 3.603,-0.576 8.226,1.476 11.52,2.161 8.093,1.683 17.141,1.646 21.599,-3.12 1.058,-1.13 1.361,-3.257 2.641,-4.32 1.536,-1.275 3.722,-0.687 5.76,-2.4 2.28,0.497 3.966,2.04 6.241,2.4 1.483,0.235 2.827,-0.321 4.318,0.24 3.59,1.35 4.87,8.815 5.762,10.8 1.712,3.821 4.286,6.693 4.558,11.52 0.138,2.437 -0.28,5.071 -0.96,6.96 -2.373,6.592 -8.562,12.305 -13.2,18 -2.103,2.585 -4.419,5.655 -6.96,8.64 -2.14,2.515 -5.704,5.808 -6.719,8.639 -3.553,9.908 5.879,12.346 12.24,15.36 4.047,1.918 7.887,3.818 11.519,5.521 8.607,4.035 17.669,6.396 26.401,7.44 6.949,0.83 21.552,-1.585 25.439,-5.28 1.236,-1.174 2.61,-4.668 4.08,-7.44 3.917,-7.384 8.026,-15.206 12,-21.84 5.657,-9.44 12.204,-19.029 17.761,-27.361 6.374,-9.558 11.431,-19.038 16.8,-28.559 4.09,-7.249 8.055,-15.098 10.08,-23.76 C 0.508,31.366 0.178,28.205 0.722,24.24 1.03,21.975 2.594,19.509 2.642,17.28 2.665,16.093 2.063,14.903 1.92,13.68 1.382,9.041 2.217,3.553 0,0 m -263.519,59.76 c -3.044,-0.756 -11.155,-2.346 -11.281,-4.32 -0.076,-1.221 4.312,-3.925 5.281,-4.561 6.138,-4.025 12.172,-7.72 19.92,-9.599 8.625,-2.092 17.733,-1.902 26.64,-2.88 3.044,-0.334 6.515,-1.436 8.88,-0.96 2.625,0.529 6.797,5.112 7.199,7.44 0.643,3.704 -0.731,6.854 -1.439,11.04 -0.441,2.605 -0.604,8.434 -2.64,9.84 -2.271,1.568 -8.707,0.706 -11.761,0.48 -14.216,-1.051 -27.695,-3.227 -40.799,-6.48 m 100.32,-2.16 c -0.206,-1.295 2.121,-2.947 2.88,-3.6 1.961,-1.687 5.834,-4.95 9.359,-4.32 2.473,0.442 4.363,3.925 6.721,4.8 0.51,0.188 3.703,0.135 4.079,1.68 0.349,1.431 -2.78,3.598 -4.079,4.08 -2.362,0.877 -5.758,0.461 -8.16,0.24 -3.801,-0.35 -10.45,-0.675 -10.8,-2.88 m 60.239,-12.48 c -2.596,-1.521 -8.613,-4.694 -9.12,-7.2 -0.694,-3.443 2.027,-8.048 5.52,-6.961 1.069,2.754 -1.202,3.852 -0.959,6.001 0.381,3.389 5.348,4.307 5.759,8.16 -0.322,-0.132 -0.902,0.173 -1.2,0 m -356.639,-3.36 c -1.765,0.009 -3.519,-1.266 -5.04,-1.44 -3.404,-0.389 -6.168,1.052 -9.601,0.96 -3.792,-0.102 -8.947,-1.013 -10.799,-4.08 1.524,-1.162 3.036,-2.309 5.04,-3.84 1.444,-1.104 3.949,-3.428 5.759,-3.36 1.374,0.052 3.919,2.163 5.761,2.879 2.043,0.796 4.305,1.851 6.96,1.681 2.105,-0.135 4.141,-1.198 6,-0.96 1.674,0.215 3.191,1.481 4.799,1.92 3.745,1.021 8.206,0.626 10.561,3.12 -5.28,1.518 -13.091,3.088 -19.44,3.12 M -12,20.16 c -1.309,2.006 -2.926,1.243 -5.76,1.44 -1.003,-0.516 -1.283,-1.756 -2.639,-1.92 -3.599,2.731 -7.153,-0.527 -11.039,-0.96 -0.208,-1.408 0.69,-2.718 0,-3.841 -2.664,-2.094 -7.551,-0.267 -9.84,0.961 0.013,2.435 -0.625,4.44 -2.402,4.56 -4.784,0.323 -5.821,-11.828 -6.24,-18.24 -0.152,-2.339 -1.381,-5.102 -0.96,-7.44 0.807,-4.474 8.563,-4.397 9.12,-0.48 0.641,4.499 -4.985,5.172 -5.519,8.16 -0.578,3.239 1.407,7.153 3.841,7.92 0.654,0.207 1.883,-0.131 2.638,0 3.313,0.575 5.108,2.667 9.362,1.92 0.768,-0.135 1.661,-0.949 2.638,-0.96 0.61,-0.007 1.363,0.56 2.161,0.72 2.501,0.502 4.899,0.423 6,1.44 1.671,1.545 1.317,4.805 5.04,3.12 2.732,-2.972 1.554,-6.727 -0.241,-9.84 3.676,0.349 5.951,10.209 3.84,13.44 M -333.359,-84 c -19.882,15.317 -36.883,31.556 -52.56,51.12 -1.881,2.347 -5.581,9.085 -8.16,9.12 -3.221,0.043 -2.711,-4.281 -6.48,-4.08 -5.679,0.3 -0.499,7.25 -0.48,10.08 0.022,3.372 -2.82,7.124 -4.32,10.32 -1.697,3.615 -3.154,7.539 -5.04,9.84 -3.293,4.015 -9.65,5.97 -15.6,7.68 -5.747,1.652 -8.328,2.847 -14.881,2.879 -2.085,0.012 -4.811,-2.111 -4.559,-4.319 0.197,-1.735 4.466,-3.667 6.719,-4.8 7.953,-3.998 16.265,-7.266 22.801,-12.24 2.739,-2.084 9.736,-8.967 8.159,-14.641 -0.62,-2.232 -3.215,-1.542 -3.839,-4.559 2.101,-2.977 8.545,-3.007 10.08,-6.24 1.011,-2.131 0.982,-5.862 -1.44,-6.24 -3.758,-0.587 -4.451,3.961 -6.721,5.28 -2.476,1.44 -7.186,1.453 -8.16,4.08 -1.586,4.281 0.76,11.469 -1.679,14.4 -1.221,1.467 -3.625,1.627 -6,2.16 -2.497,0.56 -4.8,1.849 -6.96,1.44 -1.99,-0.377 -6.14,-4.977 -6.48,-6.72 -1.135,-5.811 5.143,-8.75 8.64,-11.28 3.391,-2.453 6.517,-4.639 9.36,-6.48 7.063,-4.574 14.025,-6.629 20.64,-11.04 2.778,-1.853 5.704,-4.981 8.639,-7.68 2.965,-2.725 6.716,-4.727 9.121,-7.2 1.782,-1.833 3.119,-4.424 5.04,-5.76 5.106,-3.553 11.774,-5.854 18.239,-8.64 11.893,-5.125 22.136,-11.415 35.04,-14.64 -1.798,3.731 -5.888,5.67 -9.119,8.16 m 315.12,89.28 c -29.08,3.027 -6.174,-15.522 0,0 m -443.76,-12.72 c -1.211,2.497 0.042,6.136 -1.201,8.64 -1.181,2.381 -9.767,4.238 -9.839,0.24 -0.046,-2.507 2.707,-1.48 4.56,-1.68 0.456,-4.405 -2.153,-7.746 -5.04,-9.6 4.31,-5.29 9.98,-9.22 17.04,-11.76 0.774,4.306 -3.164,5.948 -2.401,11.04 -1.342,1.785 -2.216,1.256 -3.119,3.12 m 50.715,-47.85 c 2.266,-0.107 5.085,2.61 6.645,3.21 -3.161,3.48 -8.227,6.333 -12.72,7.68 2.442,-2.838 3.892,-7.792 6.075,-10.89 m 41.925,-32.31 c -2.355,-0.023 -2.156,3.129 -2.64,4.32 -0.384,0.943 -1.916,2.563 -3.6,4.56 -1.246,1.476 -2.381,3.389 -3.601,4.8 -2.185,2.529 -4.503,3.396 -7.199,5.04 -1.521,0.927 -2.912,3.005 -4.56,2.88 -3.75,-0.284 -3.3,-5.717 -1.921,-8.4 1.961,-3.814 4.953,-5.698 8.16,-9.36 2.289,-2.612 5.709,-7.555 8.161,-8.64 2.61,-1.155 5.521,-1.078 7.92,-2.16 2.287,-1.032 4.279,-3.346 6.959,-2.16 0.968,2.145 -1.617,3.434 -2.399,5.28 -0.877,2.068 -0.094,5.164 -2.4,6.24 -1.583,-0.778 -0.895,-2.381 -2.88,-2.4 m -36.72,12.24 c -1.776,0.016 -3.247,-0.273 -4.32,-0.96 -1.087,-3.714 -0.909,-8.691 -2.881,-11.52 5.459,0.109 11.661,-0.899 17.281,-0.48 -2.231,5.448 -7.102,8.258 -10.08,12.96 m 340.319,-34.56 c -0.016,-0.961 0.938,-1.789 1.441,-3.121 0.498,-1.317 0.42,-2.964 0.96,-3.839 1.532,-2.479 6.303,-3.654 8.639,-2.64 -0.763,5.409 -2.606,11.783 -5.519,15.84 -1.611,-2.024 -5.463,-3.177 -5.521,-6.24 m -354.239,-12 c -7.715,0.518 -15.269,-1.041 -19.201,-5.52 26.419,3.287 12.577,-0.697 28.74,-2.101 2.414,-1.516 3.549,-2.843 6.541,-3.899 2.182,3.623 2.618,0.199 4.56,-0.721 1.134,-0.535 3.383,0.019 4.079,-0.239 -4.705,6.299 -13.999,11.761 -24.719,12.48 m -11.04,-12.72 c -3.877,-1.729 -6.159,-4.767 -8.641,-8.16 -1.434,-1.961 -4.424,-4.883 -2.16,-6.96 1.785,0.855 2.2,2.724 3.841,3.84 1.785,1.214 3.931,1.765 6.48,2.4 1.611,2.315 6.006,7.492 0.48,8.88 m 175.92,-16.016 c -6.015,2.793 -11.691,4.567 -17.236,7.31 -4.97,2.457 -13.14,6.471 -15.644,-1.134 10.977,-1.713 20.485,-4.753 28.319,-9.36 5.215,-3.066 9.141,-7.53 14.4,-9.84 -0.22,6.75 -4.486,10.537 -9.839,13.024 m -30.239,-4.624 c -2.718,0.896 -3.175,-7.887 -1.922,-9.841 1.295,-2.017 5.481,-1.866 8.4,-1.92 3.861,5.669 -2.111,10.319 -6.478,11.761 m 45.118,-12.24 c 1.436,-3.548 8.523,-2.836 9.601,-6.721 0.33,-1.19 -0.359,-2.561 0,-3.359 1.1,-2.446 7.917,-2.975 9.12,-0.72 0.865,1.623 -0.165,4.079 -0.96,5.279 -1.613,2.435 -5.7,2.982 -7.441,4.801 -2.15,2.247 -2.876,10.911 -8.88,8.159 -1.322,-0.606 -2.578,-4.625 -1.44,-7.439 M -92.16,-268.8 c -1.981,0.261 -2.454,5.476 -2.88,8.16 -0.854,5.397 -1.686,9.445 -1.439,14.88 0.946,20.857 5.634,35.544 14.16,48.24 1.199,1.786 3.541,3.465 3.84,5.279 0.27,1.644 0.329,2.982 -1.201,3.361 -1.518,0.377 -3.415,-2.877 -4.559,-4.56 -9.339,-13.734 -16.342,-33.109 -15.36,-54.721 1.875,-41.282 20.903,-71.046 48.719,-87.359 9.876,-5.792 21.109,-10.335 35.04,-10.32 22.869,0.024 39.598,11.228 50.402,25.44 13.084,17.215 19.079,41.18 16.558,70.08 -0.878,10.075 -5.338,20.98 -9.359,29.76 -4.328,9.45 -8.53,17.535 -14.4,24.96 -11.624,14.701 -28.666,27.309 -52.559,29.04 -0.271,-0.05 -0.375,-0.267 -0.482,-0.481 4.709,-2.41 12.411,-1.828 15.121,-6.239 -1.28,-3.107 0.736,-6.031 1.92,-8.16 1.542,0.218 1.126,2.394 2.639,2.64 0.864,-1.1 3.174,-2.133 3.12,-4.321 -0.041,-1.676 -2.03,-2.543 -2.16,-4.08 -0.117,-1.411 -2.073,-3.782 2.642,-7.199 4.713,-3.418 6.042,7.525 7.438,-0.721 1.397,-8.245 9.904,-5.133 12.721,-6.479 2.185,-2.694 4.349,-5.411 8.399,-6.24 1.731,-4.244 3.797,-6.38 6.241,-10.08 1.397,-2.114 2.267,-4.551 3.36,-6.241 0.681,-1.052 2.127,-1.743 2.399,-2.88 0.155,-0.638 -0.257,-1.71 -0.24,-2.639 0.06,-3.313 2.067,-6.318 0.722,-9.361 1.498,-2.05 3.364,-4.698 3.839,-7.919 1.457,-9.897 -1.328,-16.559 -2.879,-25.201 -0.69,-3.829 -1.24,-4.336 -2.642,-6.959 -1.769,-3.313 -1.921,-5.988 -5.278,-6.72 -0.36,-3.601 -3.389,-4.829 -5.522,-7.201 -1.673,-1.858 -8.29,-6.643 -10.32,-4.799 -0.064,1.454 0.216,0.944 -0.824,2.025 -2.226,0.545 -0.525,-0.436 -2.294,-0.346 -1.156,0.766 0.069,1.961 -2.117,1.696 -0.941,-0.578 -0.493,-1.645 -2.685,-0.975 -0.653,1.307 0.631,2.4 1.2,3.6 0.832,1.753 1.53,4.643 3.12,6 2.024,1.725 6.353,1.573 5.76,4.799 -0.344,1.874 -2.4,1.238 -3.599,2.641 -0.298,4.169 3.105,9.985 0.241,13.92 0.953,1.846 1.248,4.351 2.159,6.24 1.186,-0.65 2.906,0.297 3.841,-0.24 -1.865,-5.666 -1.195,-14.517 4.558,-12.72 1.91,0.596 3.583,3.795 3.602,6.72 0.005,0.967 -0.636,1.855 -0.482,2.88 0.159,1.051 1.186,1.917 1.441,2.88 1.447,5.467 -0.699,11.553 -1.681,15.84 -0.552,2.416 -0.557,4.988 -2.639,5.52 -4.504,1.151 -4.02,-3.604 -6.001,-5.52 -1.24,0.68 -0.755,3.083 -1.919,3.839 -1.667,0.485 -1.961,-1.954 -3.839,-1.679 -1.995,0.291 -2.216,3.906 -3.602,6.479 -0.772,1.437 -2.317,2.194 -2.88,3.361 -0.396,0.826 -0.337,2.01 -0.719,2.88 -1.502,3.414 -4.955,8.372 -6.72,9.12 -1.099,0.465 -1.867,-0.035 -2.88,0.48 -0.033,0.512 0.09,1.575 -0.239,2.4 -0.644,1.605 -7.008,6.939 -8.642,6.959 -1.473,0.019 -1.978,-1.866 -3.599,-1.439 -1.238,0.737 -0.11,2.415 -0.72,3.6 -2.533,2.523 -11.607,7.125 -10.561,-1.441 1.368,-1.199 3.594,-0.604 3.84,-2.639 0.18,-1.467 -1.921,-2.649 -1.92,-4.32 0.001,-1.108 1.072,-2.401 1.441,-3.36 0.531,-1.376 0.513,-3.909 2.88,-4.08 1.497,0.742 1.008,3.47 2.879,3.84 4.683,-3.479 11.416,-8.851 13.68,-14.4 0.563,-1.377 0.52,-3.125 1.2,-4.32 0.865,-1.519 3.023,-2.303 3.12,-4.32 0.082,-1.689 -1.5,-3.095 -1.2,-4.8 1.698,-0.863 4.199,-0.921 4.8,-2.88 -0.107,-1.531 -2.858,-2.389 -2.88,-4.32 -0.016,-1.497 1.898,-2.508 1.921,-4.32 0.022,-1.761 -1.95,-3.085 -1.921,-5.04 0.023,-1.365 1.634,-2.682 1.921,-4.32 0.262,-1.493 0.105,-5.109 -0.48,-7.2 -0.458,-1.637 -2.565,-6.155 -3.6,-6.96 -1.965,-1.531 -3.796,-1.165 -5.28,-2.88 -1.135,-1.311 -3.284,-6.48 -5.04,-6.96 -3.995,-1.093 -4.379,3.75 -7.441,3.84 -2.793,0.082 -2.986,-2.587 -6.72,-2.16 -4.155,2.306 -6.14,6.547 -12.24,6.48 -2.806,-0.032 -5.098,-2.942 -7.439,-2.88 -1.637,0.044 -5.226,2.076 -5.521,3.36 -0.276,1.205 0.804,1.457 1.442,3.36 0.287,0.861 -0.018,1.932 0.239,2.64 0.517,1.427 1.699,2.175 1.92,3.36 0.901,4.848 -1.329,6.92 -2.159,9.6 -1.247,4.018 -0.829,7.761 -2.402,11.759 -3.981,-1.063 -5.656,3.906 -8.399,3.601 -2.346,-0.261 -2.363,-3.413 -3.601,-5.521 -3.682,-0.324 -6.122,-3.682 -10.08,-4.319 -4.67,-0.753 -9.083,0.172 -12.719,-2.16 -0.672,-1.729 -2.324,-2.478 -3.361,-3.84 0.08,-2.377 -0.104,-4.592 -2.16,-4.32 m -245.52,94.559 c -0.956,0.351 -2.215,-0.098 -3.359,0.241 -2.042,0.605 -2.599,2.82 -4.56,2.16 -3.655,-1.23 -7.363,-2.939 -11.52,-4.321 -7.811,-2.594 -17.324,-4.627 -25.681,-6.239 -4.517,-0.872 -9.15,-1.371 -12.96,-3.12 7.245,0.233 13.449,-0.13 21.601,0.239 4.756,0.217 9.894,0.763 14.399,0.961 3.141,0.138 7.667,0.618 9.841,0 4.153,-1.182 2.272,-8.982 3.6,-12.721 0.388,-1.092 1.768,-3.506 3.599,-3.599 4.691,-0.239 3.415,5.982 6,7.439 3.901,-4.246 7.727,4.413 6,7.92 -0.909,0.706 -2.672,-0.645 -3.359,0.481 -0.493,2.792 1.833,3.57 3.6,3.36 -1.484,2.457 -4.045,6.044 -7.201,7.199 m 295.92,-1.92 c -0.045,-1.662 2.008,-2.79 2.402,-4.559 0.334,-1.507 -0.255,-3.052 0.239,-4.321 0.487,-1.253 2.098,-1.879 2.64,-3.359 1.023,-2.79 6.639,-7.082 9.12,-6.96 1.736,4.675 -2.431,8.397 -4.321,12.239 -1.588,3.234 -1.219,6.925 -3.36,9.841 -2.876,0.57 -6.641,-0.077 -6.72,-2.881 m -420.719,-3.359 c -1.119,1.4 -0.837,4.52 -3.361,4.08 -0.012,-0.308 -0.307,-0.333 -0.239,-0.721 -0.519,-1.646 -0.726,-4.743 -0.721,-6.96 0.054,-20.818 5.319,-37.811 15.361,-52.559 8.536,-12.537 19.693,-23.878 36.239,-25.441 15.1,-1.424 26.923,6.239 33.601,15.121 1.622,2.157 5.281,6.546 4.799,8.879 -0.202,0.98 -1.679,1.735 -2.4,2.641 -1.606,2.022 -4.44,6.022 -3.6,9.84 1.2,5.447 11.345,0.983 13.201,6 1.156,3.128 -0.074,11.203 -1.681,12.479 -2.297,-1.485 -1.816,-4.718 -3.359,-6.719 -1.249,-1.619 -2.94,-1.922 -4.32,-3.361 -2.367,-5.968 -4.093,3.939 -10.321,-1.679 -0.724,-0.653 -0.485,-2.1 -1.44,-3.361 -1.276,-1.685 -7.032,-7.436 -9.12,-4.079 -0.401,3.379 5.323,1.854 3.841,5.52 -1.781,0.2 -2.352,-1.358 -3.841,-1.68 -1.727,-0.374 -4.14,0.286 -6.479,0.239 -1.275,-0.024 -2.387,-0.68 -3.361,-0.479 -1.747,0.36 -2.459,2.731 -4.08,2.639 -1.961,-0.109 -1.838,-2.778 -3.359,-3.119 -4.141,1.922 -10.614,0.214 -14.4,0.959 -0.959,0.722 -0.385,2.977 -1.44,3.601 -12.492,0.22 -12.463,-2.685 -20.16,24.24 -0.332,5.149 1.813,10.722 -4.561,10.08 -0.463,1.785 -3.433,2.13 -4.799,3.84 m 410.88,-7.681 c 0.781,-1.534 2.82,-5.532 4.32,-5.759 1.157,-0.176 3.052,0.982 3.359,2.16 0.951,3.639 -1.588,5.142 -3.12,7.44 -2.023,3.035 -2.433,6.04 -6.239,3.84 -0.515,-2.876 0.399,-5.16 1.68,-7.681 m -74.639,-0.479 c -1.683,-7.26 -1.695,-14.149 -4.081,-19.92 -0.761,-1.84 -2.097,-3.299 -2.88,-5.28 -0.99,-2.504 -1.338,-5.189 -2.16,-7.68 -0.839,-2.54 -2.121,-4.558 -2.88,-7.2 2.733,-1.15 10.932,0.021 11.279,3.36 0.118,1.133 -1.346,3.003 -1.439,4.08 -0.477,5.534 1.786,12.211 3.359,17.76 1.622,5.717 4.299,10.869 4.801,15.84 -1.779,0.222 -4.61,-0.051 -5.999,-0.96 M 8.642,-222 c 2.277,-1.856 4.68,-6.958 8.398,-6 1.221,0.314 1.82,1.951 1.682,3.36 -0.395,3.975 -7.517,7.436 -10.562,8.64 -0.943,1.222 -2.486,3.385 -4.08,2.879 -2.932,-0.928 2.03,-4.356 1.441,-6.96 0.762,-1.05 2.13,-1.112 3.121,-1.919 m -312.241,2.4 c -1.458,-1.986 -3.259,-1.632 -5.52,-2.4 -2.728,-0.927 -6.651,-3.055 -9.121,-4.56 -2.007,-1.224 -3.016,-3.081 -4.799,-3.601 -2.913,-0.848 -5.786,1.244 -7.44,0.721 -1.576,-0.5 -1.498,-3.269 -1.44,-5.04 1.875,-2.812 6.54,-3.671 10.079,-1.681 1.467,0.826 1.915,2.633 3.6,3.361 3.459,1.495 7.818,-0.963 11.281,0.96 -0.841,3.004 7.565,12.979 3.36,12.24 M -14.88,43.92 c -0.622,-6.406 -18.43,-2.636 -17.849,-7.86 0.244,-2.205 3.887,-5.353 7.049,-5.34 2.068,0.008 3.947,1.768 6.481,2.159 4.87,0.756 9.726,-1.097 12.96,0 -3.113,12.61 -8.836,23.055 -14.88,33.361 -4.778,8.149 -9.366,16.526 -14.881,24.48 -7.876,11.36 -15.1,24.552 -21.84,37.199 -2.085,3.914 -4.682,10.705 -7.2,12.481 -3.178,2.243 -14.943,4.803 -20.159,4.32 -8.147,-0.754 -18.01,-3.223 -25.92,-7.2 -3.636,-1.828 -7.125,-3.341 -11.28,-5.28 -2.921,-1.363 -8.884,-3.749 -9.84,-6.96 -1.101,-3.692 3.718,-7.908 6,-10.56 2.76,-3.207 5.045,-6.012 7.199,-8.64 4.342,-5.293 10.885,-11.33 13.682,-18 5.801,-13.835 -5.671,-24.632 -7.442,-34.08 4.636,-0.541 4.517,5.037 6.481,7.92 1.654,2.43 3.65,2.859 5.519,4.8 -1.287,6.093 -0.581,12.004 -0.479,19.199 0.121,8.621 3.281,11.064 7.199,16.081 1.864,2.386 5.225,5.263 5.52,7.68 0.219,1.783 -0.895,3.896 -1.44,6 -2.297,8.877 -1.631,21.21 5.28,24.48 7.704,3.645 12.841,-0.135 15.84,-4.321 9.807,-13.681 7.347,-33.197 -11.519,-31.439 -1.156,0.108 -2.806,1.043 -4.321,0.72 -1.638,-0.349 -4.006,-4.331 -5.28,-6.241 -1.722,-2.583 -3.74,-4.365 -4.559,-6.96 -1.518,-4.807 0.033,-11.843 -0.241,-16.079 4.418,-1.002 9.193,-0.053 11.04,-3.6 0.804,-1.542 0.197,-3.759 1.92,-5.04 6.63,-0.808 9.835,6.336 17.04,4.32 2.104,-0.588 8.799,-4.995 7.442,-9.12 -0.695,-2.103 -4.906,-1.973 -7.442,-2.64 -2.75,-0.723 -5.287,-2.374 -6.719,-3.36 -3.97,-2.733 -8.609,-5.762 -11.76,-8.64 -4.103,-3.746 -5.885,-8.328 -9.84,-11.52 -1.054,-0.849 -2.914,-1.455 -3.601,-2.4 -0.904,-1.245 -1.009,-3.452 -1.919,-4.32 -1.094,-1.045 -3.114,-0.857 -4.321,-1.68 -0.818,-0.559 -1.561,-2.123 -2.398,-3.12 -2.681,-3.19 -5.405,-6.402 -7.442,-9.6 -0.699,-0.74 0.373,-3.253 -0.96,-3.36 -2.16,-0.998 -4.316,1.396 -6.96,1.44 -3.576,0.06 -8.792,-2.168 -13.679,-3.6 -4.485,-1.314 -9.272,-3.255 -13.441,-4.08 -1.073,-0.213 -2.147,0.02 -3.12,-0.24 -2.783,-0.745 -4.754,-2.863 -7.679,-3.12 -4.673,-0.412 -13.358,2.115 -12.96,6.24 0.415,4.303 10.097,3.324 14.639,3.6 4.456,0.27 7.064,1.947 10.561,2.64 -0.485,4.59 -2.123,8.067 -0.72,12.72 -5.624,3.07 -12.944,5.983 -20.4,7.92 -3.607,0.937 -7.659,1.985 -11.521,2.64 -4.144,0.703 -8.331,2.129 -12,2.4 -4.863,0.359 -7.549,-1.388 -11.279,-2.88 -6.415,-2.567 -11.594,-6.57 -16.561,-8.16 -16.485,-5.282 -27.05,-16.164 -36.96,-27.6 -4.044,-4.667 -8.886,-9.812 -11.519,-14.88 -1.927,-3.707 -3.093,-8.18 -5.04,-12.96 -1.575,-3.867 -5.301,-8.793 -4.56,-13.44 0.602,-3.775 4.929,-8.947 6.719,-12 1.659,-2.828 4.449,-10.907 7.201,-11.52 2.999,-0.668 5.492,2.964 8.159,2.4 1.616,-0.342 4.023,-5.018 4.801,-6 5.679,-7.174 15.834,-15.676 10.799,-27.36 -0.877,-2.036 -3.239,-3.808 -3.359,-5.76 -0.291,-4.724 4.785,-10.107 4.32,-15.12 4.907,-1.172 9.294,-2.867 10.559,-7.68 3.915,1.576 6.422,-0.594 9.84,-2.401 6.363,-3.359 12.635,-7.426 19.441,-9.359 7.916,-2.25 16.071,-2.722 25.439,-3.36 2.463,-0.168 6.174,-1.327 7.921,1.2 -3.936,2.384 -12.084,0.557 -14.881,4.08 8.002,5.348 14.571,12.604 20.881,19.439 2.074,2.249 4.036,4.997 6.959,6.001 -3.497,-9.383 -9.379,-12.781 -13.319,-21.72 3.342,-1.064 2.916,1.043 5.16,2.52 0.981,0.645 2.391,0.705 3.359,1.44 2.007,1.52 2.76,4.288 5.04,5.28 1.791,0.778 4.355,0.002 5.281,2.399 -1.541,1.735 -4.088,0.663 -4.56,2.641 -0.693,2.899 2.352,2.663 5.039,4.56 1.871,1.32 3.548,5.411 5.28,6 3.486,1.185 12.757,0.313 12.481,3.84 -0.174,2.232 -4.03,1.147 -4.321,3.12 2.749,1.902 5.373,4.262 9.121,4.8 1.764,0.254 3.426,-0.359 5.28,0.24 5.55,1.794 3.691,10.537 0.479,13.68 -3.446,3.373 -8.379,4.014 -8.16,10.32 0.515,1.621 3.292,-0.463 3.601,1.2 0.195,5.876 -4.152,9.288 -6,13.92 4.668,3.517 11.762,4.583 18.479,6.24 3.188,0.786 6.573,1.648 9.84,2.4 4.148,0.955 8.238,3.096 12.481,2.64 7.494,-0.806 13.112,-6.339 20.879,-6.48 5.791,-3.164 10.977,-7.488 17.04,-10.8 6.081,-3.321 12.999,-5.445 19.92,-8.16 6.142,-2.409 12.99,-5.217 20.161,-7.92 5.9,-2.224 15.337,-5.3 23.759,-4.32 1.421,0.165 2.747,1.216 4.321,1.44 3.636,0.52 7.458,-0.764 11.28,-0.24 2.394,1.766 5.147,3.172 7.439,5.04 -1.599,11.819 -7.901,20.518 -13.679,28.56 -2.825,3.93 -6.484,7.643 -9.839,11.28 -3.366,3.646 -6.938,7.629 -11.522,9.6 1.118,-9.146 -1.082,-17.977 -6.719,-21.36 -3.98,-2.387 -7.243,-3.333 -12.001,-1.2 -3.365,1.509 -6.971,5.055 -10.559,7.68 -3.899,2.852 -8.278,5.139 -10.08,8.4 1.618,1.888 4.558,1.542 6.96,1.68 2.65,0.151 5.52,0.277 8.159,0.48 6.318,0.487 9.803,1.694 14.16,3.12 2.767,0.904 5.646,0.801 7.2,3.12 -1.599,5.634 -6.757,3.151 -11.759,1.92 -3.293,-0.811 -6.656,-2.221 -9.12,-2.4 -2.974,-0.217 -6.177,-0.207 -9.6,-0.48 -12.605,-1.005 -23.099,1.249 -29.761,5.76 -0.974,0.66 -1.874,2.239 -3.12,2.88 -3.386,1.741 -13.539,1.768 -10.08,7.68 0.975,0.918 3.136,-0.821 3.36,0.72 0.649,1.056 -0.353,2.519 -0.719,3.36 -2.041,0.163 -2.048,-2.86 -4.321,-1.68 -1.298,5.211 3.691,6.064 3.601,9.6 -0.074,2.954 -4.248,4.396 -5.28,8.16 -0.339,1.24 0.038,2.821 -0.241,4.08 -1.168,5.295 -10.399,7.408 -10.32,12.48 0.035,2.213 2.85,3.686 3.841,5.76 0.728,1.523 0.952,4.039 1.68,5.04 1.42,1.954 5.137,3.572 7.92,5.28 3.127,1.92 6.525,2.578 9.599,3.84 1.949,0.8 4.602,3.348 6.721,3.36 2.57,0.014 7.091,-2.249 8.159,-3.36 1.435,-1.491 0.98,-3.407 2.4,-4.08 2.208,-1.046 4.993,0.739 7.68,-0.24 2.129,-0.775 2.42,-1.207 4.08,-2.31 6.477,-4.299 22.169,9.182 21.12,0.15"
             style="fill:#231f20;fill-opacity:1;fill-rule:evenodd;stroke:none"
             id="path72" />
        </g>
      </g>
    </g>
  </g>
</svg>
